<svg width="413" height="340" viewBox="0 0 413 340" fill="none" xmlns="http://www.w3.org/2000/svg">
<path fill-rule="evenodd" clip-rule="evenodd" d="M183.61 212.466V22.5342L206.414 0L228.926 22.5342V212.466L206.414 235L183.61 212.466ZM93.268 167.397V67.8954L115.78 45.3611L138.293 67.8954V167.397L115.78 189.932L93.268 167.397ZM273.951 167.397V67.8954L296.463 45.3611L318.976 67.8954V167.397L296.463 189.932L273.951 167.397Z" fill="#333333"/>
<path d="M55.08 285.674C60.792 285.674 65.416 287.544 68.952 291.284C72.488 294.956 74.256 299.954 74.256 306.278V338H65.382V306.584C65.382 302.64 64.362 299.58 62.322 297.404C60.282 295.228 57.562 294.14 54.162 294.14C50.354 294.14 47.294 295.432 44.982 298.016C42.738 300.532 41.616 304.408 41.616 309.644V338H32.742V306.584C32.742 302.64 31.756 299.58 29.784 297.404C27.88 295.228 25.262 294.14 21.93 294.14C18.19 294.14 15.062 295.432 12.546 298.016C10.098 300.6 8.874 304.476 8.874 309.644V338H0V287H8.874V293.834C12.342 288.394 17.408 285.674 24.072 285.674C30.94 285.674 35.938 288.564 39.066 294.344C42.602 288.564 47.94 285.674 55.08 285.674Z" fill="#333333"/>
<path d="M141.845 331.574C136.609 336.742 130.251 339.326 122.771 339.326C115.291 339.326 108.933 336.742 103.697 331.574C98.5285 326.406 95.9445 320.048 95.9445 312.5C95.9445 304.952 98.5285 298.594 103.697 293.426C108.933 288.258 115.291 285.674 122.771 285.674C130.251 285.674 136.609 288.258 141.845 293.426C147.081 298.594 149.699 304.952 149.699 312.5C149.699 320.048 147.081 326.406 141.845 331.574ZM122.771 330.656C127.871 330.656 132.155 328.922 135.623 325.454C139.091 321.986 140.825 317.668 140.825 312.5C140.825 307.332 139.091 303.014 135.623 299.546C132.155 296.078 127.871 294.344 122.771 294.344C117.739 294.344 113.489 296.078 110.021 299.546C106.553 303.014 104.819 307.332 104.819 312.5C104.819 317.668 106.553 321.986 110.021 325.454C113.489 328.922 117.739 330.656 122.771 330.656Z" fill="#333333"/>
<path d="M215.444 331.574C210.208 336.742 203.85 339.326 196.37 339.326C188.89 339.326 182.532 336.742 177.296 331.574C172.128 326.406 169.544 320.048 169.544 312.5C169.544 304.952 172.128 298.594 177.296 293.426C182.532 288.258 188.89 285.674 196.37 285.674C203.85 285.674 210.208 288.258 215.444 293.426C220.68 298.594 223.298 304.952 223.298 312.5C223.298 320.048 220.68 326.406 215.444 331.574ZM196.37 330.656C201.47 330.656 205.754 328.922 209.222 325.454C212.69 321.986 214.424 317.668 214.424 312.5C214.424 307.332 212.69 303.014 209.222 299.546C205.754 296.078 201.47 294.344 196.37 294.344C191.338 294.344 187.088 296.078 183.62 299.546C180.152 303.014 178.418 307.332 178.418 312.5C178.418 317.668 180.152 321.986 183.62 325.454C187.088 328.922 191.338 330.656 196.37 330.656Z" fill="#333333"/>
<path d="M271.397 285.674C277.381 285.674 282.175 287.578 285.779 291.386C289.383 295.126 291.185 300.226 291.185 306.686V338H282.311V307.196C282.311 303.048 281.189 299.852 278.945 297.608C276.701 295.296 273.607 294.14 269.663 294.14C265.243 294.14 261.673 295.534 258.953 298.322C256.233 301.042 254.873 305.258 254.873 310.97V338H245.999V287H254.873V294.344C258.477 288.564 263.985 285.674 271.397 285.674Z" fill="#333333"/>
<path d="M322.036 316.58C322.92 321.136 324.993 324.672 328.258 327.188C331.59 329.704 335.669 330.962 340.497 330.962C347.229 330.962 352.126 328.48 355.186 323.516L362.734 327.8C357.77 335.484 350.29 339.326 340.294 339.326C332.202 339.326 325.605 336.81 320.505 331.778C315.473 326.678 312.958 320.252 312.958 312.5C312.958 304.816 315.44 298.424 320.404 293.324C325.367 288.224 331.794 285.674 339.682 285.674C347.162 285.674 353.248 288.326 357.94 293.63C362.7 298.866 365.079 305.19 365.079 312.602C365.079 313.894 364.978 315.22 364.773 316.58H322.036ZM339.682 294.038C334.922 294.038 330.978 295.398 327.85 298.118C324.722 300.77 322.784 304.34 322.036 308.828H356.104C355.356 304 353.452 300.328 350.392 297.812C347.332 295.296 343.762 294.038 339.682 294.038Z" fill="#333333"/>
<path d="M396.394 295.568C399.318 289.244 404.622 286.082 412.306 286.082V295.364C407.954 295.16 404.214 296.316 401.086 298.832C397.958 301.348 396.394 305.394 396.394 310.97V338H387.52V287H396.394V295.568Z" fill="#333333"/>
</svg>
